<!--?xml version="1.0" encoding="utf-8"?-->
<!-- Generator: Adobe Illustrator 18.1.1, SVG Export Plug-In . SVG Version: 6.00 Build 0)  -->

<svg version="1.1" id="_x32_" xmlns="http://www.w3.org/2000/svg" xmlns:xlink="http://www.w3.org/1999/xlink" x="0px" y="0px" viewBox="0 0 512 512" style="width: 256px; height: 256px; opacity: 1;" xml:space="preserve">
<style type="text/css">
	.st0{fill:#4B4B4B;}
</style>
<g>
	<path class="st0" d="M356.659,253.992c-31.239-32.454-67.775-55.158-55.65-82.444c8.244-18.55,39.161-41.222,22.06-85.681
		C311.83,56.657,272.154,27.27,289.335,0c-31.609,10.78-42.865,44.958-33.67,64.37c9.211,19.428,16.248,52.712-14.428,70.078
		c-30.675,17.382-95.585,59.306-63.895,127.789c76.262-26.795,142.168,12.77,146.258,81.27c4.09,68.5-74.119,95.986-109.158,56.825
		c-14.171-15.853-6.908-30.24-1.788-35.361c5.233,22.302,39.87,33.735,62.364,12.27c22.495-21.465,21.883-86.149-46.004-94.054
		c-65.07-7.577-127.789,38.516-111.446,129.511c16.36,90.979,154.197,136.574,228.784,61.834
		C414.129,406.628,410.264,309.642,356.659,253.992z" style="fill: rgb(75, 75, 75);"></path>
</g>
</svg>
