<?xml version="1.0" encoding="UTF-8" standalone="no"?>
<svg
   xmlns:dc="http://purl.org/dc/elements/1.1/"
   xmlns:cc="http://creativecommons.org/ns#"
   xmlns:rdf="http://www.w3.org/1999/02/22-rdf-syntax-ns#"
   xmlns:svg="http://www.w3.org/2000/svg"
   xmlns="http://www.w3.org/2000/svg"
   id="svg4373"
   viewBox="0 0 57.6 57.6"
   height="0.8in"
   width="0.8in"
   y="0in"
   x="0in"
   version="1.2">
  <metadata
     id="metadata4379">
    <rdf:RDF>
      <cc:Work
         rdf:about="">
        <dc:format>image/svg+xml</dc:format>
        <dc:type
           rdf:resource="http://purl.org/dc/dcmitype/StillImage" />
        <dc:title></dc:title>
      </cc:Work>
    </rdf:RDF>
  </metadata>
  <defs
     id="defs4377" />
  <g
     id="g4371"
     partID="64370">
    <g
       id="icon">
      <path
         style="fill:#2c7417;fill-opacity:1"
         id="path4066"
         d="M0,57.6l57.6,0L57.6,0L0,0L0,57.6M5.8,54c0,-0.8,0.6,-1.4,1.4,-1.4s1.4,0.6,1.4,1.4c0,0.8,-0.6,1.4,-1.4,1.4S5.8,54.8,5.8,54zM5.8,46.8c0,-0.8,0.6,-1.4,1.4,-1.4s1.4,0.6,1.4,1.4c0,0.8,-0.6,1.4,-1.4,1.4S5.8,47.6,5.8,46.8zM5.8,39.6c0,-0.8,0.6,-1.4,1.4,-1.4s1.4,0.6,1.4,1.4C8.6,40.4,8,41,7.2,41S5.8,40.4,5.8,39.6zM5.8,32.4c0,-0.8,0.6,-1.4,1.4,-1.4s1.4,0.6,1.4,1.4c0,0.8,-0.6,1.4,-1.4,1.4S5.8,33.2,5.8,32.4zM5.8,25.2c0,-0.8,0.6,-1.4,1.4,-1.4s1.4,0.6,1.4,1.4S8,26.6,7.2,26.6S5.8,26,5.8,25.2L5.8,25.2zM5.8,18c0,-0.8,0.6,-1.4,1.4,-1.4s1.4,0.6,1.4,1.4S8,19.4,7.2,19.4S5.8,18.8,5.8,18zM5.8,10.8c0,-0.8,0.6,-1.4,1.4,-1.4s1.4,0.6,1.4,1.4S8,12.2,7.2,12.2S5.8,11.6,5.8,10.8zM5.8,3.6c0,-0.8,0.6,-1.4,1.4,-1.4s1.4,0.6,1.4,1.4S8,5,7.2,5S5.8,4.4,5.8,3.6zM49,3.6c0,-0.8,0.6,-1.4,1.4,-1.4c0.8,0,1.4,0.6,1.4,1.4S51.2,5,50.4,5C49.6,5,49,4.4,49,3.6zM49,10.8c0,-0.8,0.6,-1.4,1.4,-1.4c0.8,0,1.4,0.6,1.4,1.4s-0.6,1.4,-1.4,1.4C49.6,12.2,49,11.6,49,10.8zM49,18c0,-0.8,0.6,-1.4,1.4,-1.4c0.8,0,1.4,0.6,1.4,1.4s-0.6,1.4,-1.4,1.4C49.6,19.4,49,18.8,49,18zM49,25.2c0,-0.8,0.6,-1.4,1.4,-1.4c0.8,0,1.4,0.6,1.4,1.4s-0.6,1.4,-1.4,1.4C49.6,26.6,49,26,49,25.2zM49,32.4c0,-0.8,0.6,-1.4,1.4,-1.4c0.8,0,1.4,0.6,1.4,1.4c0,0.8,-0.6,1.4,-1.4,1.4C49.6,33.8,49,33.2,49,32.4zM49,39.6c0,-0.8,0.6,-1.4,1.4,-1.4c0.8,0,1.4,0.6,1.4,1.4c0,0.8,-0.6,1.4,-1.4,1.4C49.6,41,49,40.4,49,39.6zM49,46.8c0,-0.8,0.6,-1.4,1.4,-1.4c0.8,0,1.4,0.6,1.4,1.4c0,0.8,-0.6,1.4,-1.4,1.4C49.6,48.2,49,47.6,49,46.8zM49,54c0,-0.8,0.6,-1.4,1.4,-1.4c0.8,0,1.4,0.6,1.4,1.4c0,0.8,-0.6,1.4,-1.4,1.4C49.6,55.4,49,54.8,49,54z"
          />
      <g
         id="g4170">
        <title
           id="title4068">layer 21</title>
        <g
           id="g4076">
          <title
             id="title4070">text:TB6612FNG</title>
          <g
             id="g4074"
             transform="matrix(1, 0, 0, 1, 19.8, 50.04)">
            <text
               id="text4072"
               fill="#FFFFFF"
               font-size="3.3408"
               font-family="'OCRA'">TB6612FNG</text>
          </g>
        </g>
        <g
           id="g4084">
          <title
             id="title4078">text:Breakout</title>
          <g
             id="g4082"
             transform="matrix(1, 0, 0, 1, 19.8, 54.36)">
            <text
               style="font-size:3.34080005px;font-family:OCRA;fill:#ffffff"
               id="text4080"
               font-size="3.3408">Pololu713</text>
          </g>
        </g>
        <g
           id="g4094">
          <title
             id="title4086">element:C1</title>
          <g
             id="g4092">
            <title
               id="title4088">package:0402-CAP</title>
            <line
               id="line4090"
               y2="18.1"
               fill="none"
               y1="17.9"
               stroke="#FFFFFF"
               x2="32.4"
               stroke-linecap="round"
               x1="32.4"
               stroke-width="1.152" />
          </g>
        </g>
        <g
           id="g4104">
          <title
             id="title4096">element:C2</title>
          <g
             id="g4102">
            <title
               id="title4098">package:0402-CAP</title>
            <line
               id="line4100"
               y2="17.9"
               fill="none"
               y1="18.1"
               stroke="#FFFFFF"
               x2="25.2"
               stroke-linecap="round"
               x1="25.2"
               stroke-width="1.152" />
          </g>
        </g>
        <g
           id="g4132">
          <title
             id="title4106">element:C3</title>
          <g
             id="g4130">
            <title
               id="title4108">package:EIA3528</title>
            <line
               id="line4110"
               y2="6.3"
               fill="none"
               y1="6.3"
               stroke="#FFFFFF"
               x2="36.2"
               stroke-linecap="round"
               x1="31.4"
               stroke-width="0.576" />
            <line
               id="line4112"
               y2="15.2"
               fill="none"
               y1="6.3"
               stroke="#FFFFFF"
               x2="36.2"
               stroke-linecap="round"
               x1="36.2"
               stroke-width="0.576" />
            <line
               id="line4114"
               y2="15.2"
               fill="none"
               y1="15.2"
               stroke="#FFFFFF"
               x2="31.4"
               stroke-linecap="round"
               x1="36.2"
               stroke-width="0.576" />
            <line
               id="line4116"
               y2="6.4"
               fill="none"
               y1="6.4"
               stroke="#FFFFFF"
               x2="22.6"
               stroke-linecap="round"
               x1="26"
               stroke-width="0.576" />
            <line
               id="line4118"
               y2="7.4"
               fill="none"
               y1="6.4"
               stroke="#FFFFFF"
               x2="21.4"
               stroke-linecap="round"
               x1="22.6"
               stroke-width="0.576" />
            <line
               id="line4120"
               y2="14.3"
               fill="none"
               y1="7.4"
               stroke="#FFFFFF"
               x2="21.4"
               stroke-linecap="round"
               x1="21.4"
               stroke-width="0.576" />
            <line
               id="line4122"
               y2="15.2"
               fill="none"
               y1="14.3"
               stroke="#FFFFFF"
               x2="22.6"
               stroke-linecap="round"
               x1="21.4"
               stroke-width="0.576" />
            <line
               id="line4124"
               y2="15.2"
               fill="none"
               y1="15.2"
               stroke="#FFFFFF"
               x2="26"
               stroke-linecap="round"
               x1="22.6"
               stroke-width="0.576" />
            <line
               id="line4126"
               y2="15.2"
               fill="none"
               y1="15.2"
               stroke="#FFFFFF"
               x2="26"
               stroke-linecap="round"
               x1="22.6"
               stroke-width="0.576" />
            <line
               id="line4128"
               y2="7.2"
               fill="none"
               y1="14.5"
               stroke="#FFFFFF"
               x2="27.1"
               stroke-linecap="round"
               x1="27.1"
               stroke-width="0.576" />
          </g>
        </g>
        <g
           id="g4140">
          <title
             id="title4134">element:JP5</title>
          <g
             id="g4138">
            <title
               id="title4136">package:FIDUCIAL-1X2</title>
          </g>
        </g>
        <g
           id="g4148">
          <title
             id="title4142">element:JP6</title>
          <g
             id="g4146">
            <title
               id="title4144">package:FIDUCIAL-1X2</title>
          </g>
        </g>
        <g
           id="g4166">
          <title
             id="title4150">element:U1</title>
          <g
             id="g4164">
            <title
               id="title4152">package:SSOP24</title>
            <line
               id="line4154"
               y2="44.4"
               fill="none"
               y1="20.4"
               stroke="#FFFFFF"
               x2="35.9"
               stroke-linecap="round"
               x1="35.9"
               stroke-width="0.576" />
            <line
               id="line4156"
               y2="44.4"
               fill="none"
               y1="44.4"
               stroke="#FFFFFF"
               x2="21.7"
               stroke-linecap="round"
               x1="35.9"
               stroke-width="0.576" />
            <line
               id="line4158"
               y2="20.4"
               fill="none"
               y1="44.4"
               stroke="#FFFFFF"
               x2="21.7"
               stroke-linecap="round"
               x1="21.7"
               stroke-width="0.576" />
            <line
               id="line4160"
               y2="20.4"
               fill="none"
               y1="20.4"
               stroke="#FFFFFF"
               x2="35.9"
               stroke-linecap="round"
               x1="21.7"
               stroke-width="0.576" />
            <circle
               id="circle4162"
               cx="23.8"
               r="0.6"
               fill="none"
               stroke="#FFFFFF"
               cy="22.3"
               stroke-width="0.576" />
          </g>
        </g>
      </g>
      <g
         id="g4318">
        <g
           id="g4176">
          <rect
             id="rect4172"
             height="7.1"
             x="22.4"
             fill="#303030"
             y="7"
             width="12.7" />
          <rect
             id="rect4174"
             height="7.1"
             x="22.4"
             fill="#E5E3E3"
             y="7"
             width="1.4" />
        </g>
        <g
           id="g4316"
           transform="matrix(2.57889e-06, 1, -1, 2.57889e-06, 35.224, -13.1073)">
          <g
             id="g4314">
            <g
               id="g4298">
              <g
                 id="g4181"
                 transform="matrix(0, -1, 1, 0, -9.35719, 46.2303)">
                <g
                   id="g4179">
                  <rect
                     height="1"
                     x="28.4"
                     fill="#888E8A"
                     y="49.6"
                     id="connector25pad"
                     width="4" />
                </g>
              </g>
              <g
                 id="g4186"
                 transform="matrix(0, -1, 1, 0, -24.0973, 60.9704)">
                <g
                   id="g4184">
                  <rect
                     height="1"
                     x="43.1"
                     fill="#888E8A"
                     y="79"
                     id="connector33pad"
                     width="4" />
                </g>
              </g>
              <g
                 id="g4191"
                 transform="matrix(0, -1, 1, 0, 9.52726, 68.7997)">
                <g
                   id="g4189">
                  <rect
                     height="1"
                     x="70.5"
                     fill="#888E8A"
                     y="32.6"
                     id="connector41pad"
                     width="4" />
                </g>
              </g>
              <g
                 id="g4196"
                 transform="matrix(0, -1, 1, 0, -16.7273, 53.6003)">
                <g
                   id="g4194">
                  <rect
                     height="1"
                     x="35.7"
                     fill="#888E8A"
                     y="64.3"
                     id="connector29pad"
                     width="4" />
                </g>
              </g>
              <g
                 id="g4201"
                 transform="matrix(0, -1, 1, 0, 2.15716, 76.1695)">
                <g
                   id="g4199">
                  <rect
                     height="1"
                     x="77.8"
                     fill="#888E8A"
                     y="47.2"
                     id="connector37pad"
                     width="4" />
                </g>
              </g>
              <g
                 id="g4206"
                 transform="matrix(0, -1, 1, 0, 16.8973, 61.4296)">
                <g
                   id="g4204">
                  <rect
                     height="1"
                     x="63.1"
                     fill="#888E8A"
                     y="17.8"
                     id="connector45pad"
                     width="4" />
                </g>
              </g>
              <g
                 id="g4211"
                 transform="matrix(0, -1, 1, 0, -13.0422, 49.9153)">
                <g
                   id="g4209">
                  <rect
                     height="1"
                     x="32"
                     fill="#888E8A"
                     y="56.9"
                     id="connector27pad"
                     width="4" />
                </g>
              </g>
              <g
                 id="g4216"
                 transform="matrix(0, -1, 1, 0, -20.4123, 57.2854)">
                <g
                   id="g4214">
                  <rect
                     height="1"
                     x="39.4"
                     fill="#888E8A"
                     y="71.6"
                     id="connector31pad"
                     width="4" />
                </g>
              </g>
              <g
                 id="g4221"
                 transform="matrix(0, 1, -1, 0, 79.8545, 1.52788)">
                <g
                   id="g4219">
                  <rect
                     height="1"
                     x="-7.2"
                     fill="#888E8A"
                     y="25.7"
                     id="connector35pad"
                     width="4" />
                </g>
              </g>
              <g
                 id="g4226"
                 transform="matrix(0, -1, 1, 0, 5.8422, 72.4846)">
                <g
                   id="g4224">
                  <rect
                     height="1"
                     x="74.2"
                     fill="#888E8A"
                     y="39.9"
                     id="connector39pad"
                     width="4" />
                </g>
              </g>
              <g
                 id="g4231"
                 transform="matrix(0, -1, 1, 0, 13.2123, 65.1146)">
                <g
                   id="g4229">
                  <rect
                     height="1"
                     x="66.8"
                     fill="#888E8A"
                     y="25.1"
                     id="connector43pad"
                     width="4" />
                </g>
              </g>
              <g
                 id="g4236"
                 transform="matrix(0, -1, 1, 0, -7.51464, 44.3877)">
                <g
                   id="g4234">
                  <rect
                     height="1"
                     x="26.5"
                     fill="#888E8A"
                     y="45.8"
                     id="connector24pad"
                     width="4" />
                </g>
              </g>
              <g
                 id="g4241"
                 transform="matrix(0, -1, 1, 0, -11.1997, 48.0727)">
                <g
                   id="g4239">
                  <rect
                     height="1"
                     x="30.2"
                     fill="#888E8A"
                     y="53.3"
                     id="connector26pad"
                     width="4" />
                </g>
              </g>
              <g
                 id="g4246"
                 transform="matrix(0, -1, 1, 0, -14.8847, 51.7578)">
                <g
                   id="g4244">
                  <rect
                     height="1"
                     x="33.9"
                     fill="#888E8A"
                     y="60.6"
                     id="connector28pad"
                     width="4" />
                </g>
              </g>
              <g
                 id="g4251"
                 transform="matrix(0, -1, 1, 0, -18.5697, 55.4428)">
                <g
                   id="g4249">
                  <rect
                     height="1"
                     x="37.6"
                     fill="#888E8A"
                     y="68"
                     id="connector30pad"
                     width="4" />
                </g>
              </g>
              <g
                 id="g4256"
                 transform="matrix(0, -1, 1, 0, -22.2548, 59.1278)">
                <g
                   id="g4254">
                  <rect
                     height="1"
                     x="41.3"
                     fill="#888E8A"
                     y="75.4"
                     id="connector32pad"
                     width="4" />
                </g>
              </g>
              <g
                 id="g4261"
                 transform="matrix(0, 1, -1, 0, 81.6977, 3.37039)">
                <g
                   id="g4259">
                  <rect
                     height="1"
                     x="-9"
                     fill="#888E8A"
                     y="25.8"
                     id="connector34pad"
                     width="4" />
                </g>
              </g>
              <g
                 id="g4266"
                 transform="matrix(0, -1, 1, 0, 0.314646, 78.012)">
                <g
                   id="g4264">
                  <rect
                     height="1"
                     x="79.7"
                     fill="#888E8A"
                     y="50.9"
                     id="connector36pad"
                     width="4" />
                </g>
              </g>
              <g
                 id="g4271"
                 transform="matrix(0, -1, 1, 0, 3.99969, 74.327)">
                <g
                   id="g4269">
                  <rect
                     height="1"
                     x="76"
                     fill="#888E8A"
                     y="43.6"
                     id="connector38pad"
                     width="4" />
                </g>
              </g>
              <g
                 id="g4276"
                 transform="matrix(0, -1, 1, 0, 7.6847, 70.6422)">
                <g
                   id="g4274">
                  <rect
                     height="1"
                     x="72.3"
                     fill="#888E8A"
                     y="36.2"
                     id="connector40pad"
                     width="4" />
                </g>
              </g>
              <g
                 id="g4281"
                 transform="matrix(0, -1, 1, 0, 11.3697, 66.9572)">
                <g
                   id="g4279">
                  <rect
                     height="1"
                     x="68.6"
                     fill="#888E8A"
                     y="28.8"
                     id="connector42pad"
                     width="4" />
                </g>
              </g>
              <g
                 id="g4286"
                 transform="matrix(0, -1, 1, 0, 15.0548, 63.2722)">
                <g
                   id="g4284">
                  <rect
                     height="1"
                     x="64.9"
                     fill="#888E8A"
                     y="21.4"
                     id="connector44pad"
                     width="4" />
                </g>
              </g>
              <g
                 id="g4291"
                 transform="matrix(0, -1, 1, 0, -3.82961, 40.7027)">
                <g
                   id="g4289">
                  <rect
                     height="1"
                     x="22.8"
                     fill="#888E8A"
                     y="38.5"
                     id="connector22pad"
                     width="4" />
                </g>
              </g>
              <g
                 id="g4296"
                 transform="matrix(0, -1, 1, 0, -5.67212, 42.5452)">
                <g
                   id="g4294">
                  <rect
                     height="1"
                     x="24.7"
                     fill="#888E8A"
                     y="42.2"
                     id="connector23pad"
                     width="4" />
                </g>
              </g>
            </g>
            <g
               id="g4308">
              <g
                 id="g4306">
                <g
                   id="g4304">
                  <g
                     id="_x30_.1.12.0.0.0.0.8_1_">
                    <g
                       id="g4301"
                       transform="matrix(2.57889e-06, 1, -1, 2.57889e-06, 51.6955, -39.2016)">
                      <rect
                         height="24.1"
                         x="37.5"
                         fill="#303030"
                         y="-5.8"
                         id="_x30_.1.12.0.0.0.0.8.0_1_"
                         width="15.9" />
                    </g>
                  </g>
                </g>
              </g>
            </g>
            <polygon
               points="57.6,14.2,33.5,14.2,34.2,13.3,56.7,13.3"
               fill="#1F1F1F"
               id="_x30_.1.12.0.0.0.0.9_1_" />
            <polygon
               points="57.6,-1.7,33.5,-1.7,34.2,-0.7,56.7,-0.7"
               fill="#1F1F1F"
               id="_x30_.1.12.0.0.0.0.10_1_" />
            <polygon
               points="57.6,14.2,57.6,-1.7,56.7,-0.7,56.7,13.3"
               id="_x30_.1.12.0.0.0.0.11_1_" />
            <polygon
               points="33.5,14.2,33.5,-1.7,34.2,-0.7,34.2,13.3"
               fill="#3D3D3D"
               id="_x30_.1.12.0.0.0.0.12_1_" />
          </g>
        </g>
      </g>
      <rect
         id="rect4320"
         height="24.1"
         x="21.7"
         fill="#333333"
         y="20.4"
         width="14.2" />
      <circle
         cx="7.2"
         r="2.1"
         fill="none"
         stroke="#9A916C"
         cy="54"
         id="connector6pin"
         stroke-width="1.224" />
      <path
         id="path4323"
         d="M2.5,51.9l9.4,0l0,4.1L2.5,56L2.5,51.9M5.1,54c0,1.1,0.9,2.1,2.1,2.1s2.1,-0.9,2.1,-2.1c0,0,0,0,0,0c0,-1.1,-0.9,-2.1,-2.1,-2.1S5.1,52.9,5.1,54C5.1,54,5.1,54,5.1,54z"
         fill="#9A916C" />
      <circle
         cx="7.2"
         r="2.1"
         fill="none"
         stroke="#9A916C"
         cy="46.8"
         id="connector7pin"
         stroke-width="1.224" />
      <path
         id="path4326"
         d="M2.5,44.7l9.4,0l0,4.1L2.5,48.8L2.5,44.7M5.1,46.8c0,1.1,0.9,2.1,2.1,2.1s2.1,-0.9,2.1,-2.1c0,0,0,0,0,0c0,-1.1,-0.9,-2.1,-2.1,-2.1S5.1,45.7,5.1,46.8C5.1,46.8,5.1,46.8,5.1,46.8z"
         fill="#9A916C" />
      <circle
         cx="7.2"
         r="2.1"
         fill="none"
         stroke="#9A916C"
         cy="39.6"
         id="connector8pin"
         stroke-width="1.224" />
      <path
         id="path4329"
         d="M2.5,37.5l9.4,0l0,4.1L2.5,41.6L2.5,37.5M5.1,39.6c0,1.1,0.9,2.1,2.1,2.1s2.1,-0.9,2.1,-2.1c0,0,0,0,0,0c0,-1.1,-0.9,-2.1,-2.1,-2.1S5.1,38.5,5.1,39.6C5.1,39.6,5.1,39.6,5.1,39.6z"
         fill="#9A916C" />
      <circle
         cx="7.2"
         r="2.1"
         fill="none"
         stroke="#9A916C"
         cy="32.4"
         id="connector9pin"
         stroke-width="1.224" />
      <path
         id="path4332"
         d="M2.5,30.3l9.4,0l0,4.1L2.5,34.4L2.5,30.3M5.1,32.4c0,1.1,0.9,2.1,2.1,2.1s2.1,-0.9,2.1,-2.1c0,0,0,0,0,0c0,-1.1,-0.9,-2.1,-2.1,-2.1S5.1,31.3,5.1,32.4C5.1,32.4,5.1,32.4,5.1,32.4z"
         fill="#9A916C" />
      <circle
         cx="7.2"
         r="2.1"
         fill="none"
         stroke="#9A916C"
         cy="25.2"
         id="connector10pin"
         stroke-width="1.224" />
      <path
         id="path4335"
         d="M2.5,23.1l9.4,0l0,4.1L2.5,27.2L2.5,23.1M5.1,25.2c0,1.1,0.9,2.1,2.1,2.1s2.1,-0.9,2.1,-2.1c0,0,0,0,0,0c0,-1.1,-0.9,-2.1,-2.1,-2.1S5.1,24.1,5.1,25.2C5.1,25.2,5.1,25.2,5.1,25.2z"
         fill="#9A916C" />
      <circle
         cx="7.2"
         r="2.1"
         fill="none"
         stroke="#9A916C"
         cy="18"
         id="connector11pin"
         stroke-width="1.224" />
      <path
         id="path4338"
         d="M2.5,15.9l9.4,0l0,4.1L2.5,20L2.5,15.9M5.1,18c0,1.1,0.9,2.1,2.1,2.1s2.1,-0.9,2.1,-2.1c0,0,0,0,0,0c0,-1.1,-0.9,-2.1,-2.1,-2.1C6.1,15.9,5.1,16.9,5.1,18C5.1,18,5.1,18,5.1,18z"
         fill="#9A916C" />
      <circle
         cx="7.2"
         r="2.1"
         fill="none"
         stroke="#9A916C"
         cy="10.8"
         id="connector12pin"
         stroke-width="1.224" />
      <path
         id="path4341"
         d="M2.5,8.7l9.4,0l0,4.1L2.5,12.8L2.5,8.7M5.1,10.8c0,1.1,0.9,2.1,2.1,2.1c1.1,0,2.1,-0.9,2.1,-2.1c0,0,0,0,0,0c0,-1.1,-0.9,-2.1,-2.1,-2.1C6.1,8.7,5.1,9.7,5.1,10.8C5.1,10.8,5.1,10.8,5.1,10.8z"
         fill="#9A916C" />
      <circle
         cx="7.2"
         r="2.1"
         fill="none"
         stroke="#9A916C"
         cy="3.6"
         id="connector13pin"
         stroke-width="1.224" />
      <path
         id="path4344"
         d="M2.5,1.5l9.4,0l0,4.1L2.5,5.6L2.5,1.5M5.1,3.6c0,1.1,0.9,2.1,2.1,2.1c1.1,0,2.1,-0.9,2.1,-2.1c0,0,0,0,0,0c0,-1.1,-0.9,-2.1,-2.1,-2.1C6.1,1.5,5.1,2.5,5.1,3.6C5.1,3.6,5.1,3.6,5.1,3.6z"
         fill="#9A916C" />
      <circle
         cx="50.4"
         r="2.1"
         fill="none"
         stroke="#9A916C"
         cy="3.6"
         id="connector14pin"
         stroke-width="1.224" />
      <path
         id="path4347"
         d="M45.7,1.5l9.4,0l0,4.1l-9.4,0L45.7,1.5M48.3,3.6c0,1.1,0.9,2.1,2.1,2.1c1.1,0,2.1,-0.9,2.1,-2.1c0,0,0,0,0,0c0,-1.1,-0.9,-2.1,-2.1,-2.1C49.3,1.5,48.3,2.5,48.3,3.6C48.3,3.6,48.3,3.6,48.3,3.6z"
         fill="#9A916C" />
      <circle
         cx="50.4"
         r="2.1"
         fill="none"
         stroke="#9A916C"
         cy="10.8"
         id="connector15pin"
         stroke-width="1.224" />
      <path
         id="path4350"
         d="M45.7,8.7l9.4,0l0,4.1l-9.4,0L45.7,8.7M48.3,10.8c0,1.1,0.9,2.1,2.1,2.1c1.1,0,2.1,-0.9,2.1,-2.1c0,0,0,0,0,0c0,-1.1,-0.9,-2.1,-2.1,-2.1C49.3,8.7,48.3,9.7,48.3,10.8C48.3,10.8,48.3,10.8,48.3,10.8z"
         fill="#9A916C" />
      <circle
         cx="50.4"
         r="2.1"
         fill="none"
         stroke="#9A916C"
         cy="18"
         id="connector16pin"
         stroke-width="1.224" />
      <path
         id="path4353"
         d="M45.7,15.9l9.4,0l0,4.1l-9.4,0L45.7,15.9M48.3,18c0,1.1,0.9,2.1,2.1,2.1s2.1,-0.9,2.1,-2.1c0,0,0,0,0,0c0,-1.1,-0.9,-2.1,-2.1,-2.1C49.3,15.9,48.3,16.9,48.3,18C48.3,18,48.3,18,48.3,18z"
         fill="#9A916C" />
      <circle
         cx="50.4"
         r="2.1"
         fill="none"
         stroke="#9A916C"
         cy="25.2"
         id="connector17pin"
         stroke-width="1.224" />
      <path
         id="path4356"
         d="M45.7,23.1l9.4,0l0,4.1l-9.4,0L45.7,23.1M48.3,25.2c0,1.1,0.9,2.1,2.1,2.1s2.1,-0.9,2.1,-2.1c0,0,0,0,0,0c0,-1.1,-0.9,-2.1,-2.1,-2.1S48.3,24.1,48.3,25.2C48.3,25.2,48.3,25.2,48.3,25.2z"
         fill="#9A916C" />
      <circle
         cx="50.4"
         r="2.1"
         fill="none"
         stroke="#9A916C"
         cy="32.4"
         id="connector18pin"
         stroke-width="1.224" />
      <path
         id="path4359"
         d="M45.7,30.3l9.4,0l0,4.1l-9.4,0L45.7,30.3M48.3,32.4c0,1.1,0.9,2.1,2.1,2.1s2.1,-0.9,2.1,-2.1c0,0,0,0,0,0c0,-1.1,-0.9,-2.1,-2.1,-2.1S48.3,31.3,48.3,32.4C48.3,32.4,48.3,32.4,48.3,32.4z"
         fill="#9A916C" />
      <circle
         cx="50.4"
         r="2.1"
         fill="none"
         stroke="#9A916C"
         cy="39.6"
         id="connector19pin"
         stroke-width="1.224" />
      <path
         id="path4362"
         d="M45.7,37.5l9.4,0l0,4.1l-9.4,0L45.7,37.5M48.3,39.6c0,1.1,0.9,2.1,2.1,2.1s2.1,-0.9,2.1,-2.1c0,0,0,0,0,0c0,-1.1,-0.9,-2.1,-2.1,-2.1S48.3,38.5,48.3,39.6C48.3,39.6,48.3,39.6,48.3,39.6z"
         fill="#9A916C" />
      <circle
         cx="50.4"
         r="2.1"
         fill="none"
         stroke="#9A916C"
         cy="46.8"
         id="connector20pin"
         stroke-width="1.224" />
      <path
         id="path4365"
         d="M45.7,44.7l9.4,0l0,4.1l-9.4,0L45.7,44.7M48.3,46.8c0,1.1,0.9,2.1,2.1,2.1s2.1,-0.9,2.1,-2.1c0,0,0,0,0,0c0,-1.1,-0.9,-2.1,-2.1,-2.1S48.3,45.7,48.3,46.8C48.3,46.8,48.3,46.8,48.3,46.8z"
         fill="#9A916C" />
      <circle
         cx="50.4"
         r="2.1"
         fill="none"
         stroke="#9A916C"
         cy="54"
         id="connector21pin"
         stroke-width="1.224" />
      <path
         id="path4368"
         d="M45.7,51.9l9.4,0l0,4.1l-9.4,0L45.7,51.9M48.3,54c0,1.1,0.9,2.1,2.1,2.1s2.1,-0.9,2.1,-2.1c0,0,0,0,0,0c0,-1.1,-0.9,-2.1,-2.1,-2.1S48.3,52.9,48.3,54C48.3,54,48.3,54,48.3,54z"
         fill="#9A916C" />
    </g>
  </g>
</svg>
